<svg width="88" height="28" viewBox="0 0 88 28" xmlns="http://www.w3.org/2000/svg" fill="#000000"><path d="M11.287 14.945h7.92c-.316 1.5-1.56 3.225-3.16 4.363-1.392 1-3.022 1.416-4.984 1.285-1.828-.125-3.416-.754-4.722-1.87-2.79-2.4-3.612-6.423-2.055-10.014 1.386-3.217 4.786-5.137 8.427-4.753 2.992.307 4.972 1.69 6.063 4.231l.049.114h3.748l-.07-.24a9.585 9.585 0 00-.57-1.495c-.924-2.002-2.402-3.555-4.391-4.616C14.229.19 10.729.028 7.144 1.47c-2.734 1.119-4.754 3.07-6 5.792a11.857 11.857 0 00-.977 7.067c.57 3.429 2.346 6.094 5.28 7.93a11.305 11.305 0 006.117 1.74c.636 0 1.271-.045 1.9-.135 2.333-.322 4.248-1.4 5.69-3.203.172-.216.334-.445.506-.688l.03-.044v3.614h3.043v-11.81H11.287v3.212zm19.558-5.031V7.98H27.5v15.55h3.352v-.489c0-1.302-.01-6.44 0-9.043 0-.201.032-.36.088-.434 1.071-1.407 2.428-2.28 4.033-2.593.469-.088.959-.148 1.435-.21l.163-.02v-3.14h-.188c-2.151 0-3.97.757-5.54 2.312zM87.812 7.59c-2.148 0-3.966.762-5.544 2.324V7.962h-3.324v15.581h3.336v-.47c0-1.271-.01-6.474 0-9.1 0-.23.047-.343.088-.396.968-1.264 2.075-2.06 3.401-2.434.44-.12.88-.204 1.348-.29.245-.045.489-.088.734-.143l.149-.03V7.59h-.188zm-18.996.103c-2.24-.407-4.356.055-6.287 1.368-.006-1.337 0-6.17 0-8.873V0h-3.393v23.518h3.39V22.41a8.35 8.35 0 004.739 1.483c2.26 0 4.36-.922 5.73-2.299 2.62-2.637 3.168-6.849 1.3-10.006-1.264-2.164-3.108-3.474-5.479-3.896zm3.39 8.022a5.146 5.146 0 01-3.181 4.759 5.16 5.16 0 01-5.618-1.117 5.149 5.149 0 013.646-8.791 5.163 5.163 0 013.64 1.51 5.152 5.152 0 011.511 3.639h.003zM51.143 8.12c-.008.3-.01.586-.01.894-3.919-2.607-8.337-1.501-10.576.925-2.64 2.85-3.027 7.213-.927 10.374 1.078 1.622 2.502 2.708 4.237 3.223a8.76 8.76 0 002.502.376c1.656 0 3.255-.511 4.774-1.529v1.11h3.344V7.938H51.15l-.007.181zm.528 7.595a5.148 5.148 0 01-3.181 4.76 5.16 5.16 0 01-5.62-1.116 5.15 5.15 0 013.646-8.793 5.163 5.163 0 013.64 1.511 5.152 5.152 0 011.511 3.638h.004z" stroke="none"></path></svg>